<svg id="Layer_1" data-name="Layer 1" xmlns="http://www.w3.org/2000/svg" viewBox="0 0 484.55 460.89"><defs><style>.cls-1{fill:#00b6f4;}.cls-2{fill:#0b0c0c;}.cls-3{fill:#2f3437;}.cls-4{fill:#a2a7aa;}</style></defs><title>about_icon3</title><polygon class="cls-1" points="142.53 261.42 199.62 261.42 199.45 204.33 280.28 204.33 280.45 261.42 342.2 261.42 342.2 346.83 280.12 346.92 280.29 399.33 199.62 399.33 199.62 346.75 142.53 346.83 142.53 261.42"/><polygon class="cls-2" points="61.87 0 118.82 0 118.82 19.75 76.12 19.75 76.03 90.33 104.49 90.36 104.53 19.75 118.82 19.75 118.82 109.44 61.74 109.33 61.87 0"/><polygon class="cls-2" points="365.76 90.64 380.58 96.85 380.23 19.31 408.69 19.34 408.71 90.47 365.76 90.64 365.76 109.33 422.8 109.31 422.79 0.07 365.8 0.07 365.76 90.64"/><polygon class="cls-3" points="470.3 446.63 470.3 156.86 484.56 156.86 484.55 460.89 189.37 460.5 0 460.89 0 156.86 14.26 156.86 14.24 446.64 221.12 446.5 470.3 446.63"/><polygon class="cls-4" points="4.99 55.76 4.76 156.86 14.26 156.86 14.3 161.76 470.3 161.61 470.3 156.86 479.8 156.86 478.99 57.09 422.8 57.09 422.8 108.32 365.57 108.07 365.57 56.07 118.87 56.09 118.87 108.44 61.78 108.34 61.78 55.76 4.99 55.76"/></svg>