<svg id="Layer_1" data-name="Layer 1" xmlns="http://www.w3.org/2000/svg" viewBox="0 0 565.29 570.14"><defs><style>.cls-1{fill:#00b6f4;}.cls-2{fill:#fff;}</style></defs><title>about_icon1</title><path class="cls-1" d="M304,111.28c34.49-20.88,66.45-25.59,84-28,20.92-2.87,55.53-7.23,97,6,38.59,12.31,63,33.44,75,44,33.06,29.18,48.58,60,52,67,19.67,40.33,20.71,76.06,21,92,0.32,17.76.58,54.62-19,96-18.35,38.79-44.4,61-60,74-15.86,13.23-38.59,32.19-74,42-27.79,7.7-50.09,6.09-79,4-26-1.88-46-3.32-70-14-23.68-10.52-38.36-24.25-52-37-12.53-11.72-34.37-32.53-51-67-15-31.18-18.4-58.18-20-72a233.54,233.54,0,0,1,0-55,218.17,218.17,0,0,1,18-64,206,206,0,0,1,38-56A198.53,198.53,0,0,1,304,111.28Z" transform="translate(-138.3 -12.57)"/><path class="cls-1" d="M308.67,261.61" transform="translate(-138.3 -12.57)"/><polygon class="cls-2" points="170.37 311.38 242.07 311.38 242.03 392.71 314.03 392.71 314.03 311.38 385.82 311.17 385.84 248.89 313.95 248.86 313.95 172.2 242.07 172.2 241.95 248.9 170.19 248.87 170.37 311.38"/><path d="M429.51,13a260.81,260.81,0,0,0-36,.33A287.56,287.56,0,0,0,321.18,29,271.71,271.71,0,0,0,288.51,43.7c-12.84,6.58-23.83,12.22-37,22-14.64,10.87-24.44,21.27-31.67,29-4.93,5.28-4.72,2.74-25.85,27.58-13.62,16-14.33,20.37-17.67,25.33-7.54,11.21-10.6,18.78-14.49,27.76a241.82,241.82,0,0,0-9.67,26.33c-1.88,6.31-7,16.77-12.51,59.91-2.27,17.82-.89,26.29-1.15,32.42a233.85,233.85,0,0,0,2.67,47c2.08,12.76,4.64,21.51,9.67,38.67,4.38,14.94,6.82,23.28,11.67,34.67,8.45,19.85,12.67,29.77,20,36.33,7,6.24,12.94,13.64,14.67,22.67,0,0.18,0-3.34,0,7.67L195,495.45l-8.82,24.92L173,575.54,213.85,560l42.83-23.33c10-3.22,15,1.61,19,3.5,6.38,3,7.5,5.5,15.83,10.5,6.35,3.81,10.27,7.36,18,11.33a139.38,139.38,0,0,0,28.67,10.67A199.46,199.46,0,0,0,364.51,578c14.75,2,27.39,4.81,49,4.67,37.36-.25,54.79-2.26,66-5A299,299,0,0,0,516.18,566c18.06-6.72,32.24-12.76,48.33-22.67,11.26-6.93,21.12-13,33.33-23,15-12.3,24.7-23.23,33.33-33,13.38-15.14,23-26.83,29.67-38.33,7.79-13.43,13.7-19.58,19-30.33a195.14,195.14,0,0,0,11.33-29,234.55,234.55,0,0,0,6-25.33,328,328,0,0,0,5-33,303.7,303.7,0,0,0,1-45l-23.33-.67c-0.12,4.06-.32,10.06-0.67,17.33a418.54,418.54,0,0,1-4.5,44.5c-2.31,16.36-5.15,26.43-11.5,40.83-2.26,5.14-5.1,14.83-15.33,30.67-11.93,18.45-19.56,26.68-26.33,35.67-10.05,13.33-17.12,22.71-29,33.33-9.15,8.19-15.28,14.34-26.33,21.67a345.81,345.81,0,0,1-31.67,18.67c-9.54,4.94-19.51,10.11-33.33,15-16,5.67-28.48,7.88-42.33,10.33-16.19,2.87-27.46,4.87-43.33,5a192.09,192.09,0,0,1-47.33-5.33c-10.44-2.62-18.7-5.71-28.33-9.33-10.53-4-17.11-6.42-25.67-11-3.56-1.9-6.07-3.43-24.33-15.33-7-4.59-11.62-8.5-17-8.33l-26.67,7.33-35.84,17.48,9.26-28,5.25-11.5c2.34-7.85,4.29-19.22,0-30.67-2.61-7-5.64-8.89-15.17-21.58-4.54-6.05-13-17.36-20-30.5-6.62-12.48-9.74-22.62-13.25-34a272.74,272.74,0,0,1-8.75-38.25c-2.13-13-4.29-26.19-4-43.75,0.23-14,1.9-24.06,4.5-39.75s4.25-25.6,8.5-38.75c4.64-14.33,9.65-24,17.5-39.25,8.2-15.89,13-25.14,21.75-36.75,9.87-13.06,19.09-21.54,27-28.75,12.08-11,17.55-19,33.4-30.09,18.44-12.87,31.76-18,42.35-22.91,18-8.39,33.19-11.46,45.75-14a244.19,244.19,0,0,1,66-4.25Z" transform="translate(-138.3 -12.57)"/><circle cx="332.7" cy="18.71" r="13.67"/><circle cx="379.37" cy="29.71" r="13.67"/><circle cx="421.37" cy="49.38" r="13.67"/><circle cx="459.37" cy="76.71" r="13.67"/><circle cx="494.78" cy="109.04" r="13.67"/><circle cx="522.11" cy="147.04" r="13.67"/><circle cx="542.03" cy="190.38" r="13.67"/><circle cx="551.62" cy="239.04" r="13.67"/></svg>