<svg id="Layer_1" data-name="Layer 1" xmlns="http://www.w3.org/2000/svg" viewBox="0 0 518.04 494.12"><defs><style>.cls-1{fill:#b6bec0;}.cls-2{fill:#00b6f4;}</style></defs><title>about_icon4</title><rect class="cls-1" y="304.45" width="93" height="189.67"/><polygon points="115.88 304.45 115.88 327.12 148.63 327.12 194.63 281.08 315.25 280.7 315 299.45 333.5 299.47 333.5 257.89 185.33 257.79 139.25 304.45 115.88 304.45"/><polyline points="333.5 299.47 324.21 313.24 319.67 313.37 341.24 313.38 338.17 327.29 338.17 336.54 208.63 336.54 208.63 308.7 299.35 308.67 315 299.45"/><polygon points="338.17 326.29 342.33 308.79 361.5 281.29 382 256.62 398.83 239.95 407.33 235.12 425.33 235.12 429.67 238.78 444.33 239.12 449.17 248.45 421.33 257.79 421 252.95 406.5 252.95 397.17 260.62 383.83 275.79 375.33 284.95 374.83 293.95 378 299.45 388.83 308.95 361.33 331.62 347.5 331.95 346.83 336.54 338.17 336.54 338.17 326.29"/><polygon points="421.83 258.79 412.83 272.29 402.17 281.95 387.5 294.12 376.95 298.54 388.83 308.95 412 294.62 440.17 276.62 455.33 266.95 453.67 248.54 449.17 248.45 421.33 257.79 421.83 258.79"/><polygon points="453.67 248.54 481.44 248.45 493.42 254.79 518.04 272.17 518.04 280.55 510.67 281.17 491.04 281.17 490.42 266.8 471.79 266.92 455 267.05 453.67 248.54"/><polygon points="115.88 433.45 120.67 424.79 192.33 424.79 269.33 397.12 324.33 378.79 365.33 359.79 414.67 334.45 450.67 308.95 478.67 287.79 491.04 281.17 518.04 280.55 489.33 304.45 442.67 336.54 409.33 357 386.33 374.79 352.67 387.79 315.33 399.29 284.33 410.79 242.67 425.45 211.33 441.12 196.33 443.45 194.33 447.45 115.88 447.45 115.88 433.45"/><path class="cls-2" d="M458.5,73.28a58.7,58.7,0,0,0-22-15.5c-19.47-7.71-37.25-2.12-44,0a74.72,74.72,0,0,0-25,13.5c-7.68,6.4-13.77,14.36-20,22.5-2.36,3.08.1,1.2-1.17,3v43.5l0.39,5.54L468.5,279.28,584,152.78l4-6V99.28c-1.71-4.37-13.14-32.36-42-41.5-19.71-6.24-37.21-.42-44.5,2-16.48,5.48-24.83,17.17-33,20.5Z" transform="translate(-162 -53.83)"/></svg>