<svg id="Layer_1" data-name="Layer 1" xmlns="http://www.w3.org/2000/svg" viewBox="0 0 439.33 448.25"><defs><style>.cls-1{fill:#00b6f4;}</style></defs><title>about_icon2</title><polygon class="cls-1" points="189 37.71 222.08 37.71 222.08 75.5 259.85 75.54 259.85 113.33 222.08 113.29 222.08 146.38 189.01 146.38 189 113.29 151.24 113.31 151.19 75.53 189.02 75.5 189 37.71"/><polygon class="cls-1" points="363.83 0 363.83 75.63 439.33 75.63 363.83 0"/><rect x="146.46" y="170" width="255.17" height="14.16"/><rect x="146.46" y="320.75" width="255.17" height="14.62"/><polygon points="307.15 368.45 396.9 368.45 396.93 377.91 307.15 377.45 307.15 368.45"/><polygon points="146.46 184.16 165.33 184.16 165.42 320.75 146.46 320.75 146.46 184.16"/><rect x="382.83" y="184.16" width="18.8" height="136.59"/><rect x="335.83" y="184.16" width="19" height="136.59"/><rect x="236.58" y="184.16" width="18.5" height="136.59"/><polygon points="165.34 203 382.83 203 382.83 217.25 164.08 217.25 165.34 203"/><rect x="108.58" width="236" height="9.25"/><polygon points="108.58 9.25 108.58 434.25 122.83 434.25 122.83 425.5 122.83 9.25 108.58 9.25"/><polygon points="124.33 425.5 439.08 425.5 439.08 434.25 122.83 434.25 122.83 425.5 124.33 425.5"/><polygon points="430.33 89.75 439.33 89.75 439.08 424 439.08 425.5 430.33 425.5 430.33 89.75"/><path d="M231.25,83.53" transform="translate(-202.42 -83.53)"/><polygon points="75.54 0 75.67 14 66.08 14 28.42 14 28.42 0 75.54 0"/><polygon points="28.42 28.25 75.58 28.25 75.58 42.43 0 42.35 0 28.25 28.42 28.25"/><rect x="28.42" y="14" width="13.98" height="14.25"/><polygon points="61.33 14 75.67 14 75.58 28.25 61.33 28.25 61.33 14"/><polygon points="75.58 42.43 75.46 424.75 61.58 424.75 61.33 42.43 75.58 42.43"/><polygon points="42.4 42.4 42.53 212.75 42.71 425.5 28.46 425.5 28.46 42.38 42.4 42.4"/><polygon points="61.45 212.75 42.53 212.75 42.55 227.08 61.33 227.08 61.45 212.75"/><polygon points="42.53 240.92 61.33 240.92 61.33 254.92 42.57 254.92 42.53 240.92"/><polygon points="42.71 392.08 61.33 392.08 61.57 406.42 42.71 406.42 42.71 392.08"/><polyline points="28.46 425.5 42.71 448.25 61.57 448.25 75.46 424.75 28.46 424.75"/><polygon points="0 42.35 0 160.25 4.75 165.08 8.75 165.08 14.08 160.25 14.08 42.35 0 42.35"/></svg>